# xmcd
#
# Track frame offsets:
#	150
#	10645
#	20575
#	31935
#	41597
#	54357
#	63760
#	72880
#	81845
#	93397
#
# Disc length: 1372 seconds
#
# Revision: 0
# Processed by: cddbd v1.5PL3 Copyright (c) Steve Scherf et al.
# Submitted via: dBpowerAMP V4.0
#
DISCID=70055a0a
DTITLE=Jim Reeves - All American Country
DYEAR=2003
DGENRE=Country
TTITLE0=He'll Have To Go
TTITLE1=Blue Boy
TTITLE2=Anna Marie
TTITLE3=I Won't Come In While He's There
TTITLE4=Four Walls
TTITLE5=Billy Bayou
TTITLE6=I Won't Forget You
TTITLE7=Home
TTITLE8=Yonder Comes A Sucker
TTITLE9=Waiting For A Train
EXTD=
EXTT0=
EXTT1=
EXTT2=
EXTT3=
EXTT4=
EXTT5=
EXTT6=
EXTT7=
EXTT8=
EXTT9=
PLAYORDER=
